<?xml version="1.0" encoding="utf-8"?>
<!-- Generator: Adobe Illustrator 16.0.0, SVG Export Plug-In . SVG Version: 6.00 Build 0)  -->
<svg version="1.2" baseProfile="tiny"
	 id="svg17" xmlns:svg="http://www.w3.org/2000/svg" sodipodi:docname="icon.svg" inkscape:version="1.1.2 (0a00cf5339, 2022-02-04)" inkscape:export-xdpi="192" inkscape:export-filename="icon.png" inkscape:export-ydpi="192"
	 xmlns="http://www.w3.org/2000/svg" xmlns:xlink="http://www.w3.org/1999/xlink" x="0px" y="0px" width="70px" height="70px"
	 viewBox="0 0 70 70" xml:space="preserve">
<g>
	<path fill="#FFFFFF" d="M10-0.011h50c5.521,0,10,4.477,10,10v49.998c0,5.523-4.479,10.001-10,10.001H10
		c-5.522,0-10-4.478-10-10.001V9.989C0,4.466,4.478-0.011,10-0.011z"/>
	<path fill="#FFFFFF" d="M6-0.011h58.001c3.312,0,5.999,2.687,5.999,6v58c0,3.313-2.688,6-5.999,6H6c-3.313,0-6-2.688-6-6v-58
		C0,2.676,2.687-0.011,6-0.011z"/>
</g>
<path fill="#40BCAA" d="M21.781,39h-8V26c0-2.209,1.791-4,4-4h13v9v8H21.781z M21.781,39v-4c0-2,2-4,4-4h5v8H21.781z"/>
<image width="18" height="18" xlink:href="F679F2FA.png"  transform="matrix(1 0 0 1 13.5 21.5)">
</image>
<path fill="#40BCAA" d="M47.781,31h8v13c0,2.209-1.791,4-4,4h-13v-9v-8H47.781z M47.781,31v4c0,2-2,4-4,4h-5v-8H47.781z"/>
<image width="18" height="18" xlink:href="F679F2FE.png"  transform="matrix(1 0 0 1 38.5 30.5)">
</image>
<path fill="#006258" d="M30.781,22v-8h13c2.209,0,4,1.791,4,4v13h-9h-8V22z M30.781,22h4c2,0,4,2,4,4v5h-8V22z"/>
<image width="18" height="18" xlink:href="F679F2F9.png"  transform="matrix(1 0 0 1 30.5 13.5)">
</image>
<path fill="#006258" d="M38.781,48v8h-13c-2.209,0-4-1.791-4-4V39h9h8V48z M38.781,48h-4c-2,0-4-2-4-4v-5h8V48z"/>
<image width="18" height="18" xlink:href="F679F2FB.png"  transform="matrix(1 0 0 1 21.5 38.5)">
</image>
</svg>
